<?xml version="1.0" encoding="UTF-8" standalone="no"?>
<svg
   viewBox="1054.131 1344.892 1808.157 467.982"
   style="shape-rendering:geometricPrecision; text-rendering:geometricPrecision; image-rendering:optimizeQuality; fill-rule:evenodd; clip-rule:evenodd"
   version="1.1"
   id="svg8"
   sodipodi:docname="ITALAI v3 cropped.svg"
   inkscape:version="1.4.3 (0d15f75042, 2025-12-25)"
   xmlns:inkscape="http://www.inkscape.org/namespaces/inkscape"
   xmlns:sodipodi="http://sodipodi.sourceforge.net/DTD/sodipodi-0.dtd"
   xmlns="http://www.w3.org/2000/svg"
   xmlns:svg="http://www.w3.org/2000/svg">
  <sodipodi:namedview
     id="namedview8"
     pagecolor="#808080"
     bordercolor="#000000"
     borderopacity="0.25"
     inkscape:showpageshadow="2"
     inkscape:pageopacity="0.0"
     inkscape:pagecheckerboard="true"
     inkscape:deskcolor="#d1d1d1"
     inkscape:zoom="0.94598606"
     inkscape:cx="915.44689"
     inkscape:cy="217.76219"
     inkscape:window-width="2560"
     inkscape:window-height="1412"
     inkscape:window-x="0"
     inkscape:window-y="0"
     inkscape:window-maximized="1"
     inkscape:current-layer="svg8" />
  <defs
     id="defs1">
    <style
       type="text/css"
       id="style1">
   
    .fil0 {fill:none}
    .fil5 {fill:#4D8B48}
    .fil3 {fill:#AC2833}
    .fil4 {fill:#E6E6E6}
    .fil1 {fill:#4D8B48;fill-rule:nonzero}
    .fil2 {fill:#AC2833;fill-rule:nonzero}
   
  </style>
  </defs>
  <g
     id="Layer_x0020_1"
     transform="matrix(1, 0, 0, 1, 0, -2.2737367544323206e-13)">
    <rect
       class="fil0"
       width="3922"
       height="3138"
       id="rect1"
       inkscape:label="rect1"
       style="fill:none;fill-opacity:1;stroke:none" />
    <g
       id="_1932202892480">
      <path
         class="fil1"
         d="M1141 1733c0,6 -3,12 -7,16 -5,5 -10,7 -17,7 -6,0 -11,-2 -16,-7 -5,-4 -7,-10 -7,-16l0 -165c0,-6 2,-12 7,-16 5,-5 10,-7 16,-7 7,0 12,2 17,7 4,4 7,10 7,16l0 165zm405 -188c6,0 12,2 16,7 5,4 7,10 7,16 0,7 -2,12 -7,17 -4,4 -10,6 -16,6l-144 0 0 142c0,6 -2,12 -6,16 -5,5 -10,7 -17,7 -6,0 -12,-2 -16,-7 -5,-4 -7,-10 -7,-16l0 -142 -146 0c-5,0 -10,-3 -15,-7 -4,-5 -6,-10 -6,-16 0,-6 2,-12 7,-16 4,-5 10,-7 16,-7l334 0zm52 202c-5,6 -11,9 -18,9 -6,0 -12,-2 -16,-7 -5,-4 -7,-10 -7,-16 0,-6 2,-11 5,-14l117 -159c6,-7 13,-13 22,-18 9,-5 19,-7 29,-7 10,0 19,2 28,6 9,5 16,10 21,18l118 157c2,3 4,5 5,8 1,3 2,6 2,9 0,6 -2,12 -7,16 -5,5 -10,7 -16,7 -8,0 -14,-3 -19,-9l-113 -151c-2,-2 -5,-5 -8,-8 -4,-3 -7,-5 -11,-5 -3,0 -7,2 -10,5 -3,3 -6,6 -8,8l-114 151zm421 9c-9,0 -18,-2 -26,-5 -8,-3 -15,-8 -21,-14 -6,-6 -11,-12 -14,-20 -4,-8 -6,-16 -6,-25l0 -124c0,-6 2,-12 7,-16 5,-5 10,-7 16,-7 7,0 12,2 17,7 4,4 7,10 7,16l0 124c0,4 2,9 5,12 4,4 8,6 13,6l291 0c6,0 12,2 16,6 5,5 7,10 7,17 0,6 -2,12 -7,16 -4,5 -10,7 -16,7l-289 0z"
         id="path1"
         style="fill:#ffffff;fill-opacity:1" />
      <path
         class="fil2"
         d="M2821 1733c0,6 -2,12 -6,16 -5,5 -10,7 -17,7 -6,0 -12,-2 -16,-7 -5,-4 -7,-10 -7,-16l0 -165c0,-6 2,-12 7,-16 4,-5 10,-7 16,-7 7,0 12,2 17,7 4,4 6,10 6,16l0 165z"
         id="path2"
         style="fill:#6a7cff;fill-opacity:1" />
      <path
         class="fil2"
         d="M2421 1747c-5,6 -11,9 -18,9 -7,0 -12,-2 -17,-7 -4,-4 -6,-10 -6,-16 0,-6 1,-11 4,-14l118 -159c6,-7 13,-13 22,-18 9,-5 19,-7 29,-7 10,0 19,2 28,6 8,5 15,10 21,18l118 157c2,3 3,5 4,8 2,3 2,6 2,9 0,6 -2,12 -6,16 -5,5 -10,7 -17,7 -8,0 -14,-3 -18,-9l-113 -151c-2,-2 -5,-5 -9,-8 -3,-3 -6,-5 -10,-5 -4,0 -7,2 -10,5 -4,3 -6,6 -8,8l-114 151z"
         id="path3"
         style="fill:#6a7cff;fill-opacity:1" />
      <path
         class="fil2"
         d="M2523 1704c0,-9 3,-16 9,-22 5,-5 13,-8 21,-8 8,0 15,3 21,8 6,6 9,13 9,22 0,8 -3,15 -9,21 -6,6 -13,9 -21,9 -8,0 -16,-3 -21,-9 -6,-6 -9,-13 -9,-21z"
         id="path4"
         style="fill:#6a7cff;fill-opacity:1" />
      <path
         class="fil3"
         d="M2434 1400c115,-5 228,15 328,76 -100,-68 -213,-94 -329,-94l1 18z"
         id="path5"
         style="fill:#ffffff;fill-opacity:1" />
      <path
         class="fil4"
         d="M2110 1469c100,-35 205,-62 310,-68l-1 -19c-107,2 -216,26 -319,60l10 27z"
         id="path6"
         style="fill:#ffffff;fill-opacity:1" />
      <path
         class="fil5"
         d="M1593 1752c0,0 226,-174 504,-278l-11 -28c-287,98 -523,273 -523,273l30 33z"
         id="path7"
         style="fill:#ffffff;fill-opacity:1" />
      <path
         class="fil2"
         d="M2768 1494c0,-8 3,-15 9,-21 6,-6 13,-9 21,-9 9,0 16,3 21,9 6,6 9,13 9,21 0,9 -3,16 -9,21 -5,6 -12,9 -21,9 -8,0 -15,-3 -21,-9 -6,-5 -9,-12 -9,-21z"
         id="path8"
         style="fill:#e4453a;fill-opacity:1" />
    </g>
  </g>
</svg>
